<?xml version="1.0" encoding="UTF-8"?>
<svg version="1.1" xmlns="http://www.w3.org/2000/svg" width="1062" height="465">
<path d="M0 0 C0.66 0 1.32 0 2 0 C15.28180468 26.94308949 23.8195925 55.04080983 27 85 C27.0928125 85.79132324 27.185625 86.58264648 27.28125 87.39794922 C28.22404399 96.24842777 28.24352925 105.10897398 28.25 114 C28.25067474 114.83736694 28.25134949 115.67473389 28.25204468 116.53747559 C28.23298544 131.5205316 27.33356348 146.18095318 25 161 C24.83371094 162.06541016 24.66742188 163.13082031 24.49609375 164.22851562 C21.17355354 184.74212503 15.89908154 204.92088114 7.94091797 224.13842773 C5.60454809 231.24392628 8.83392998 236.92083114 11.96459961 243.24951172 C15.86310335 250.81029596 20.14857312 257.7710617 26 264 C26.5775 264.61875 27.155 265.2375 27.75 265.875 C42.30986935 279.93280489 61.38291639 283.61057649 80.86474609 283.4753418 C95.96823923 283.09360053 107.75079835 279.48046217 122 274 C122.33 248.92 122.66 223.84 123 198 C149.07 198 175.14 198 202 198 C202.64174095 224.061813 202.64174095 224.061813 202.78125 235.25390625 C202.87655809 242.86365387 202.98872686 250.47029405 203.20703125 258.07763672 C203.38212377 264.21826388 203.47679398 270.35555703 203.51803589 276.49848938 C203.54738472 278.83031179 203.60470257 281.16197086 203.69168091 283.49235535 C204.08713533 294.53661874 204.39181716 303.63661197 196.55992126 312.12041473 C193.21024443 315.33238371 189.72010463 318.22876506 186 321 C185.27962051 321.54812347 184.55924103 322.09624695 183.81703186 322.66098022 C146.76994968 350.61221187 98.64475304 358.5552232 53.18579102 353.17553711 C49.09060854 352.59497306 45.04612585 351.85571687 41 351 C40.20529297 350.83371094 39.41058594 350.66742188 38.59179688 350.49609375 C1.44984805 342.4022066 -32.79532775 319.94890203 -53.94140625 288.2109375 C-54.62074219 287.15132813 -55.30007812 286.09171875 -56 285 C-56.94166016 283.53433594 -56.94166016 283.53433594 -57.90234375 282.0390625 C-67.5899364 266.2251804 -73.72880752 247.38081355 -76 229 C-76.11085938 228.2059375 -76.22171875 227.411875 -76.3359375 226.59375 C-77.96026598 212.72110678 -77.60222341 198.44422877 -75.75 184.625 C-75.6277002 183.70871826 -75.50540039 182.79243652 -75.37939453 181.84838867 C-74.74866859 177.59653132 -73.9622684 173.61024279 -72.5234375 169.5546875 C-69.96171094 162.95354273 -69.96171094 162.95354273 -70.72607422 156.15820312 C-73.08878394 152.16387023 -76.17021548 148.87223243 -79.42724609 145.59228516 C-81.68687804 143.30459196 -83.75724893 140.85632069 -85.875 138.4375 C-91.31037165 132.62619486 -96.90018171 126.96499814 -102.5 121.3125 C-103.36608887 120.43327881 -104.23217773 119.55405762 -105.12451172 118.64819336 C-110.33865175 113.42767428 -115.73287212 108.62463433 -121.49121094 104.01196289 C-124.69321679 101.44406388 -127.78289139 98.76043719 -130.875 96.0625 C-136.46708723 91.21706358 -142.22802293 86.67495391 -148.16015625 82.25390625 C-151.01859586 79.98524098 -153.47566971 77.62622986 -156 75 C-152.2793298 75.60843508 -149.24399416 76.66767752 -145.8515625 78.30078125 C-144.85761475 78.77741211 -143.86366699 79.25404297 -142.83959961 79.74511719 C-141.77878174 80.26235352 -140.71796387 80.77958984 -139.625 81.3125 C-138.52099854 81.84649414 -137.41699707 82.38048828 -136.27954102 82.93066406 C-125.93191483 87.9683533 -115.7431631 93.29528713 -105.55957031 98.65429688 C-90.76478193 106.47173152 -90.76478193 106.47173152 -75 112 C-74.19304687 112.22429687 -73.38609375 112.44859375 -72.5546875 112.6796875 C-59.38920661 115.6924778 -44.11129438 115.04030015 -31 112 C-27.14679713 118.15228059 -23.75912543 124.28071806 -21 131 C-21.3652511 124.96705946 -22.19880142 119.66148149 -24.37890625 114.0078125 C-25 112 -25 112 -25 108 C-22.83984375 106.2109375 -22.83984375 106.2109375 -19.9375 104.375 C-6.92291199 95.33662759 -1.4347029 80.35475578 1.59326172 65.29541016 C5.27471515 44.5192846 6.75605084 20.26815253 0 0 Z " fill="#185685" transform="translate(156,0)"/>
<path d="M0 0 C20.46 0 40.92 0 62 0 C62 62.04 62 124.08 62 188 C43.52 188 25.04 188 6 188 C5.01 181.07 5.01 181.07 4 174 C2.63875 175.340625 1.2775 176.68125 -0.125 178.0625 C-13.95722942 190.46852497 -31.86658783 194.75672665 -50.08203125 193.90234375 C-67.26586879 192.64025399 -83.96857211 186.83687912 -96 174 C-113.16507274 153.70213832 -115.68567957 130.60878375 -114 105 C-112.04403044 86.12625211 -102.82495086 70.68060078 -88.94140625 58.140625 C-76.54597513 48.1418157 -61.91075347 44.40740218 -46.25 44.5 C-45.11618896 44.50572021 -43.98237793 44.51144043 -42.81420898 44.51733398 C-26.07507761 44.87145622 -14.02430339 50.58055729 -1 61 C-0.67 40.87 -0.34 20.74 0 0 Z M-44.6875 96.625 C-51.57165224 105.66322569 -51.02182397 118.19372949 -50 129 C-48.26692925 137.95419887 -43.68798634 144.7704983 -36.1875 149.9375 C-28.12052484 152.62649172 -20.76685174 152.68037092 -13 149 C-6.04206391 144.56131663 -2.68909841 138.95343063 -0.46948242 131.13012695 C1.57199095 121.86759177 1.49021797 108.44097512 -3 100 C-7.19472661 93.71332962 -11.5779272 90.19589643 -19.08984375 88.5390625 C-29.23339028 86.93463511 -37.34881126 89.45697844 -44.6875 96.625 Z " fill="#185786" transform="translate(785,150)"/>
<path d="M0 0 C20.79 0 41.58 0 63 0 C63.06058594 5.21425781 63.12117188 10.42851562 63.18359375 15.80078125 C63.22413441 19.12305421 63.26493116 22.44532014 63.30664062 25.76757812 C63.37267985 31.02967777 63.43782009 36.29177684 63.49731445 41.55395508 C63.54539119 45.8009834 63.59774328 50.04794029 63.65294075 54.29488182 C63.67317007 55.90739324 63.69191242 57.51992409 63.70907402 59.13247108 C63.04502403 77.34457416 63.04502403 77.34457416 69 94 C73.42334828 98.14760709 79.10509888 99.08640735 85 99 C91.13093088 98.39802038 96.32741624 97.22757579 101 93 C108.53104215 82.67598858 107.32400382 68.03121157 107.4140625 55.859375 C107.4328159 54.23983826 107.45239225 52.62031086 107.4727478 51.00079346 C107.52363514 46.77925171 107.5634903 42.55767843 107.60089111 38.33599854 C107.64831904 33.24872331 107.70972723 28.16159916 107.76873779 23.07444763 C107.85641958 15.38302755 107.92656234 7.69162858 108 0 C128.79 0 149.58 0 171 0 C171 45.87 171 91.74 171 139 C151.86 139 132.72 139 113 139 C112.67 133.39 112.34 127.78 112 122 C110.55625 123.36125 109.1125 124.7225 107.625 126.125 C93.33126251 138.87941191 77.31333536 143.17147338 58.4375 143.25 C57.22513672 143.270625 56.01277344 143.29125 54.76367188 143.3125 C38.42944029 143.38256641 24.14502311 138.87271878 12.19140625 127.41796875 C2.06780183 116.24771717 -0.172449 102.81535241 -0.11352539 88.20922852 C-0.11367142 87.25235641 -0.11381744 86.29548431 -0.1139679 85.30961609 C-0.11327462 82.16602259 -0.10550971 79.02248932 -0.09765625 75.87890625 C-0.09578999 73.69172701 -0.09436707 71.50454736 -0.09336853 69.31736755 C-0.08955973 63.57499019 -0.07974346 57.83263832 -0.06866455 52.090271 C-0.05661154 45.19272641 -0.05204039 38.29517327 -0.04621124 31.39762115 C-0.0365308 20.93172973 -0.01736277 10.4658942 0 0 Z " fill="#185786" transform="translate(373,199)"/>
<path d="M0 0 C0.72901016 -0.00570007 1.45802032 -0.01140015 2.2091217 -0.01727295 C3.74787981 -0.02666919 5.28665754 -0.03323538 6.82543945 -0.03710938 C9.12294075 -0.04671934 11.41950842 -0.07775301 13.71679688 -0.109375 C38.60532237 -0.28962719 61.86957903 6.73550326 80.22265625 24.203125 C96.72070802 42.95798574 100.22265625 62.60582084 100.22265625 87.203125 C61.61265625 87.203125 23.00265625 87.203125 -16.77734375 87.203125 C-14.59323768 99.85188455 -14.59323768 99.85188455 -6.46484375 108.578125 C1.86718808 113.55570246 10.54331316 114.47053498 20.04296875 112.66796875 C24.86260304 111.35156117 28.67302047 109.8636869 32.22265625 106.203125 C33.21265625 104.223125 33.21265625 104.223125 34.22265625 102.203125 C54.35265625 102.203125 74.48265625 102.203125 95.22265625 102.203125 C93.42599827 114.77973087 86.52488624 124.06925181 76.87890625 132.171875 C57.42792402 146.57065406 33.65801589 149.63703477 10.16015625 149.578125 C9.34383728 149.57758118 8.52751831 149.57703735 7.6864624 149.57647705 C-18.65739366 149.49581218 -42.58315925 144.23121049 -62.42578125 125.6484375 C-75.84888245 111.69019605 -81.38828689 95.01443811 -81.21484375 75.890625 C-81.20654541 74.70509033 -81.19824707 73.51955566 -81.18969727 72.2980957 C-81.01734051 63.34474496 -80.13708378 55.58247661 -76.77734375 47.203125 C-76.30296875 46.01976562 -75.82859375 44.83640625 -75.33984375 43.6171875 C-67.33909619 25.88476142 -51.84444041 13.11653306 -33.77734375 6.203125 C-22.74041504 2.6076411 -11.6473099 0.07287286 0 0 Z M-10.77734375 41.203125 C-15.51448008 47.19820902 -16.77734375 51.37687527 -16.77734375 59.203125 C1.04265625 59.203125 18.86265625 59.203125 37.22265625 59.203125 C36.27845258 49.76108829 35.26737331 45.24784206 28.91015625 38.890625 C16.48270487 31.08734157 0.35227737 30.98979799 -10.77734375 41.203125 Z " fill="#185786" transform="translate(952.77734375,193.796875)"/>
<path d="M0 0 C0.79871521 0.00304138 1.59743042 0.00608276 2.42034912 0.00921631 C46.42275712 0.25544332 82.90697848 15.92461653 115.875 44.4375 C111.52676554 51.66414319 106.73149011 58.39630214 101.63623047 65.10498047 C96.35985008 72.06993323 91.34561011 79.20795197 86.33300781 86.36376953 C83.94839637 89.75541212 81.53761554 93.12824597 79.125 96.5 C78.69429199 97.10215332 78.26358398 97.70430664 77.81982422 98.32470703 C76.83863328 99.6959366 75.85688681 101.06676863 74.875 102.4375 C71.37806475 100.99349191 68.77316856 98.79870562 65.90234375 96.40087891 C45.48188027 79.35063053 22.02495845 69.76970729 -4.7578125 71.69921875 C-14.71464351 72.91319479 -25.16689994 74.83038814 -33.8671875 80.09765625 C-36.125 81.4375 -36.125 81.4375 -39.125 81.4375 C-39.10928955 80.21047363 -39.0935791 78.98344727 -39.07739258 77.71923828 C-38.58762097 45.09178816 -38.58762097 45.09178816 -41.84960938 12.67773438 C-42.14869994 10.24470691 -42.17039035 7.88641739 -42.125 5.4375 C-28.63534512 0.55084667 -14.20711816 -0.11598409 0 0 Z " fill="#185786" transform="translate(234.125,58.5625)"/>
<path d="M0 0 C21.12 0 42.24 0 64 0 C64 45.87 64 91.74 64 139 C42.88 139 21.76 139 0 139 C0 93.13 0 47.26 0 0 Z " fill="#185786" transform="translate(579,199)"/>
<path d="M0 0 C0.66 2.31 1.32 4.62 2 7 C3.24716797 6.36771484 3.24716797 6.36771484 4.51953125 5.72265625 C6.14955078 4.90087891 6.14955078 4.90087891 7.8125 4.0625 C8.89144531 3.51722656 9.97039063 2.97195313 11.08203125 2.41015625 C18.97058962 -1.40211895 29.98700593 -1.5549565 38.375 1.046875 C44.54898649 4.09797297 44.54898649 4.09797297 46 7 C49.3316168 6.31976269 52.05071049 5.06267812 55.0625 3.5 C64.1315256 -1.19134557 75.49003843 -1.88585214 85.37109375 0.9765625 C89.60296217 3.02647202 92.46021355 4.97867146 95 9 C95.91702534 11.9376066 96.12636297 14.59239661 96.12939453 17.66088867 C96.13254669 18.57831345 96.13569885 19.49573822 96.13894653 20.44096375 C96.13591019 21.91458122 96.13591019 21.91458122 96.1328125 23.41796875 C96.13376923 24.43095535 96.13472595 25.44394196 96.13571167 26.48762512 C96.13639145 28.62513288 96.13455124 30.76264271 96.13037109 32.90014648 C96.12500338 36.18543073 96.13033146 39.47057929 96.13671875 42.75585938 C96.13605826 44.83072947 96.1347777 46.90559948 96.1328125 48.98046875 C96.13483673 49.96895309 96.13686096 50.95743744 96.13894653 51.97587585 C96.13421829 53.33782829 96.13421829 53.33782829 96.12939453 54.72729492 C96.12859894 55.53019455 96.12780334 56.33309418 96.12698364 57.1603241 C96 59 96 59 95 60 C93.01242972 60.09983058 91.0213248 60.13080753 89.03125 60.1328125 C87.82082031 60.13410156 86.61039063 60.13539063 85.36328125 60.13671875 C84.08839844 60.13285156 82.81351563 60.12898438 81.5 60.125 C80.22511719 60.12886719 78.95023438 60.13273437 77.63671875 60.13671875 C75.82107422 60.13478516 75.82107422 60.13478516 73.96875 60.1328125 C72.84919922 60.13168457 71.72964844 60.13055664 70.57617188 60.12939453 C68 60 68 60 67 59 C66.93650543 56.70528727 66.9408652 54.40865212 66.97265625 52.11328125 C66.98531394 50.6855494 66.99767404 49.25781488 67.00976562 47.83007812 C67.03448724 45.57649467 67.06234269 43.32304923 67.09594727 41.06958008 C67.12634977 38.8966387 67.14399487 36.72386896 67.16015625 34.55078125 C67.17699463 33.24794189 67.19383301 31.94510254 67.21118164 30.6027832 C66.99838009 26.97236414 66.71558967 22.71558967 64 20 C59.63040093 19.44928607 56.02626741 19.52962744 52 21.375 C46.94858823 28.00497795 48.88024486 39.66096211 48.9375 47.625 C48.958125 51.70875 48.97875 55.7925 49 60 C39.76 60 30.52 60 21 60 C20.14414494 55.7207247 19.92037199 52.43332735 20.0078125 48.125 C20.02457031 46.81015625 20.04132812 45.4953125 20.05859375 44.140625 C20.08955329 42.06682695 20.12514632 39.99343863 20.17138672 37.91992188 C20.21387751 35.90519 20.23608143 33.89006272 20.2578125 31.875 C20.2798877 30.67617188 20.30196289 29.47734375 20.32470703 28.2421875 C19.96829587 24.68343549 19.16157319 22.82194492 17 20 C14.9079831 19.28692487 14.9079831 19.28692487 12.625 19.5 C11.87476563 19.5103125 11.12453125 19.520625 10.3515625 19.53125 C7.18575695 20.16230758 5.50489556 20.91552076 3 23 C2.47476573 25.9765868 2.27819281 28.40404077 2.29296875 31.38671875 C2.27784744 32.20372757 2.26272614 33.02073639 2.24714661 33.86250305 C2.20417039 36.47111392 2.19542258 39.07856997 2.1875 41.6875 C2.16436323 43.45641112 2.1389996 45.22529463 2.11132812 46.99414062 C2.04837837 51.3295296 2.01612059 55.66419418 2 60 C-0.58723989 61.29361994 -2.48113003 61.12948949 -5.375 61.1328125 C-6.44234375 61.13410156 -7.5096875 61.13539063 -8.609375 61.13671875 C-9.72828125 61.13285156 -10.8471875 61.12898438 -12 61.125 C-13.11890625 61.12886719 -14.2378125 61.13273437 -15.390625 61.13671875 C-16.99164062 61.13478516 -16.99164062 61.13478516 -18.625 61.1328125 C-19.60726562 61.13168457 -20.58953125 61.13055664 -21.6015625 61.12939453 C-24 61 -24 61 -26 60 C-26.02505615 58.76548096 -26.0501123 57.53096191 -26.07592773 56.2590332 C-26.17105354 51.6201169 -26.27100462 46.98131432 -26.37231445 42.3425293 C-26.41527018 40.34581182 -26.45696731 38.34906681 -26.49731445 36.35229492 C-26.71669051 25.53786802 -26.95912848 14.77270095 -28 4 C-18.96843095 1.05948915 -9.49207724 -0.37223832 0 0 Z " fill="#F7931E" transform="translate(845,380)"/>
<path d="M0 0 C4.01920424 -0.24847658 8.03540822 -0.42917736 12.06054688 -0.54931641 C13.42689885 -0.59940736 14.7927198 -0.6675146 16.15722656 -0.75439453 C18.12586052 -0.87653605 20.09850921 -0.92726742 22.0703125 -0.9765625 C23.25383301 -1.02893066 24.43735352 -1.08129883 25.65673828 -1.13525391 C31.06576612 0.7014614 32.54437799 5.08297979 35 10 C35.65323746 11.25531021 35.65323746 11.25531021 36.31967163 12.53598022 C37.64601785 15.12286195 38.92554011 17.72866368 40.1953125 20.34375 C40.66556351 21.30367355 41.13581451 22.26359711 41.62031555 23.25260925 C43.12699535 26.33260528 44.62657618 29.41597995 46.125 32.5 C46.63523712 33.5472525 47.14547424 34.594505 47.6711731 35.67349243 C53.66505997 47.97683318 59.64638448 60.28713862 65.4375 72.6875 C65.92041504 73.71101563 66.40333008 74.73453125 66.90087891 75.7890625 C67.3241748 76.70816406 67.7474707 77.62726563 68.18359375 78.57421875 C68.53993896 79.34338623 68.89628418 80.11255371 69.26342773 80.9050293 C70 83 70 83 70 87 C65.78534426 89.10732787 60.31511802 88.26787337 55.67871094 88.29516602 C53.63929008 88.31237939 51.60149117 88.35626835 49.5625 88.40039062 C47.63277344 88.41295898 47.63277344 88.41295898 45.6640625 88.42578125 C44.48279785 88.44036377 43.3015332 88.45494629 42.08447266 88.4699707 C39 88 39 88 36.69287109 86.30151367 C34.8443409 83.78837636 34.04138427 81.75726022 33.25 78.75 C33.00765625 77.85796875 32.7653125 76.9659375 32.515625 76.046875 C32.34546875 75.37140625 32.1753125 74.6959375 32 74 C27.38841448 74.03892922 22.78442078 74.14251496 18.17553711 74.30517578 C16.60955244 74.35144829 15.04294926 74.3803078 13.47631836 74.39111328 C8.47261834 74.43242678 3.82855755 74.6130954 -1 76 C-3.83471912 79.05988548 -4.81941267 82.06636066 -6 86 C-8 88 -8 88 -10.65795898 88.24291992 C-11.75954346 88.23881104 -12.86112793 88.23470215 -13.99609375 88.23046875 C-15.19427734 88.22853516 -16.39246094 88.22660156 -17.62695312 88.22460938 C-18.88443359 88.21236328 -20.14191406 88.20011719 -21.4375 88.1875 C-22.69111328 88.18685547 -23.94472656 88.18621094 -25.23632812 88.18554688 C-34.57890455 88.14036515 -34.57890455 88.14036515 -38 87 C-37.42401207 82.27014908 -36.01449808 78.33314218 -34 74.05859375 C-33.69221619 73.39020981 -33.38443237 72.72182587 -33.06732178 72.03318787 C-32.05158212 69.8314562 -31.0257906 67.6345645 -30 65.4375 C-29.28605924 63.89437801 -28.5728557 62.35091475 -27.86035156 60.80712891 C-26.35764268 57.5535528 -24.85112699 54.30177916 -23.34179688 51.05126953 C-19.82671387 43.4764899 -16.34607136 35.88587921 -12.86230469 28.29666138 C-11.77145635 25.92171383 -10.67896903 23.54752743 -9.5859375 21.17358398 C-6.34630675 14.13476464 -3.12021357 7.09285662 0 0 Z M15 31 C13.65791246 34.10045423 12.32786246 37.20592989 11 40.3125 C10.6184375 41.19357422 10.236875 42.07464844 9.84375 42.98242188 C9.4828125 43.82998047 9.121875 44.67753906 8.75 45.55078125 C8.41484375 46.33106689 8.0796875 47.11135254 7.734375 47.9152832 C6.83387308 50.10321451 6.83387308 50.10321451 7 53 C9.92075397 53.83830296 12.52664783 54.13527361 15.5625 54.125 C16.32691406 54.12757813 17.09132813 54.13015625 17.87890625 54.1328125 C20.18998495 54.07907384 20.18998495 54.07907384 23 53 C22.44147333 47.5632024 21.06042383 43.0816633 18.9375 38.0625 C18.65583984 37.37865234 18.37417969 36.69480469 18.08398438 35.99023438 C17.3964595 34.32386054 16.69923825 32.66149273 16 31 C15.67 31 15.34 31 15 31 Z " fill="#F7931E" transform="translate(415,353)"/>
<path d="M0 0 C-1.68725509 3.57779394 -3.73741265 6.09153152 -6.4375 9 C-11.65990783 13.83849603 -11.65990783 13.83849603 -14.03125 20.0703125 C-13.49028927 22.16255769 -12.95377981 24.05759912 -12 26 C-9.73774618 27.07254351 -9.73774618 27.07254351 -7 28 C-0.51095298 33.70337765 3.355367 40.59704509 4.37890625 49.17578125 C4.72563766 58.69411759 2.73715058 66.01602491 -3.375 73.375 C-10.35774627 80.71205052 -18.35427777 84.01976651 -28.4375 84.4375 C-37.70089092 84.13657063 -46.39509506 80.53264121 -53 74 C-58.99792152 66.6795969 -61.10133187 59.69852467 -61.55859375 50.33203125 C-62.11693609 47.38220493 -62.75726157 46.01799637 -65 44 C-68.06836535 43.73507342 -68.06836535 43.73507342 -71.5 44.25 C-77.7099236 44.88906698 -83.76235935 45.11456891 -90 45 C-87.15092302 40.47260689 -84.00247852 36.67240398 -80.3125 32.8125 C-76.51506209 28.77476179 -72.8530486 24.6962119 -69.375 20.375 C-68.68841309 19.54887207 -68.00182617 18.72274414 -67.29443359 17.87158203 C-64.98185558 15.0731632 -64.98185558 15.0731632 -63.15649414 12.16333008 C-59.43293297 7.04271595 -56.45665098 4.03275616 -50.24414062 2.73828125 C-44.54165328 1.89316855 -38.81506255 1.5986948 -33.0625 1.3125 C-31.08105597 1.17450107 -29.09992307 1.03195614 -27.11914062 0.88476562 C-18.06665183 0.24700224 -9.07613935 -0.07628147 0 0 Z M-61 44 C-60 47 -60 47 -60 47 Z " fill="#185786" transform="translate(133,18)"/>
<path d="M0 0 C-0.06058594 0.71502686 -0.12117187 1.43005371 -0.18359375 2.16674805 C-2.50191531 30.42575033 -2.84081703 58.69743814 -1 87 C-9.91 87 -18.82 87 -28 87 C-28 85.35 -28 83.7 -28 82 C-28.62261719 82.433125 -29.24523437 82.86625 -29.88671875 83.3125 C-40.47141101 89.68988781 -52.27507068 89.6180778 -64.22265625 87.40234375 C-72.21103354 84.68047193 -79.8038559 78.18299555 -83.5625 70.625 C-86.8696041 61.6127495 -86.98961161 51.6542968 -83.03125 42.84375 C-78.82664297 35.45727819 -72.27530618 29.55057746 -64.2421875 26.66015625 C-59.77734966 25.75105071 -55.42353905 25.56596294 -50.875 25.5 C-50.02776367 25.48138916 -49.18052734 25.46277832 -48.30761719 25.44360352 C-40.90295392 25.51799684 -36.06301729 27.95798847 -30 32 C-30.24339111 30.94570801 -30.24339111 30.94570801 -30.49169922 29.87011719 C-31.02160509 26.878007 -31.12943685 24.11524179 -31.1328125 21.078125 C-31.13410156 19.97082031 -31.13539063 18.86351562 -31.13671875 17.72265625 C-31.13285156 16.57667969 -31.12898437 15.43070312 -31.125 14.25 C-31.13080078 12.50783203 -31.13080078 12.50783203 -31.13671875 10.73046875 C-31.13542969 9.62832031 -31.13414062 8.52617187 -31.1328125 7.390625 C-31.13168457 6.38032227 -31.13055664 5.37001953 -31.12939453 4.32910156 C-31 2 -31 2 -30 1 C-27.41088832 0.75614181 -24.84527936 0.57468548 -22.25 0.4375 C-21.55261719 0.39431641 -20.85523438 0.35113281 -20.13671875 0.30664062 C-13.42556931 -0.07153685 -6.71986281 -0.04103832 0 0 Z M-54 48 C-56.59868856 52.03244776 -57.8764191 55.22838492 -57 60 C-54.83656998 63.21537305 -52.5034305 66.24828475 -49 68 C-43.34218796 68.52071898 -38.58021291 68.74744693 -34 65 C-33.4225 64.608125 -32.845 64.21625 -32.25 63.8125 C-30.18401605 60.81682327 -29.89564815 57.54796294 -30 54 C-31.77419137 49.40797527 -34.62730913 47.1465937 -39 45 C-44.49158593 44.20794434 -49.71334166 44.10303788 -54 48 Z " fill="#F7931E" transform="translate(730,353)"/>
<path d="M0 0 C9.57 0 19.14 0 29 0 C29.0625 11.875 29.0625 11.875 29.02758789 15.55419922 C29.21413397 23.54253145 31.14099027 29.34318177 37 35 C39.12245919 35.80992776 39.12245919 35.80992776 41 36 C42.15264553 34.25447936 43.29687327 32.50339804 44.4375 30.75 C45.07558594 29.77546875 45.71367188 28.8009375 46.37109375 27.796875 C48.71113719 23.77895869 49.12577813 20.62761281 49.09765625 16.015625 C49.09515869 15.17290039 49.09266113 14.33017578 49.09008789 13.46191406 C49.08098389 12.40198242 49.07187988 11.34205078 49.0625 10.25 C49.041875 6.8675 49.02125 3.485 49 0 C58.24 0 67.48 0 77 0 C79.25392522 6.76177567 79.25392522 6.76177567 79.265625 10.49609375 C79.26949219 11.70555664 79.26949219 11.70555664 79.2734375 12.93945312 C79.26570313 13.76380859 79.25796875 14.58816406 79.25 15.4375 C79.26160156 16.66823242 79.26160156 16.66823242 79.2734375 17.92382812 C79.24769538 25.9875474 77.73926972 31.64897406 72.625 38.0625 C72.18148193 38.61921387 71.73796387 39.17592773 71.28100586 39.74951172 C69.86711899 41.51077703 68.43514458 43.25603303 67 45 C66.55897949 45.54543457 66.11795898 46.09086914 65.66357422 46.65283203 C62.80530492 50.17743338 59.83248066 53.57009261 56.7890625 56.93554688 C54.77527375 59.25931839 52.91586518 61.67987585 51.03125 64.109375 C40.41173827 76.99855174 40.41173827 76.99855174 32.30664062 78.83837891 C23.78482423 79.62801702 15.49832241 79.00014668 7 78 C4.69 73.38 2.38 68.76 0 64 C0.66 63.01 1.32 62.02 2 61 C4.79296875 60.55859375 4.79296875 60.55859375 8.1875 60.4375 C13.14110639 60.17389345 17.3285272 59.62958353 22 58 C21.41550029 54.07289258 19.51847608 51.87443505 17 48.875 C16.19304688 47.90949219 15.38609375 46.94398438 14.5546875 45.94921875 C11.43543907 42.34825152 8.22167431 38.84510066 4.9453125 35.38671875 C1.0678973 30.62948846 -0.38040503 26.62835227 -0.29296875 20.5078125 C-0.28547607 19.4264502 -0.2779834 18.34508789 -0.27026367 17.23095703 C-0.24295166 15.87599121 -0.21563965 14.52102539 -0.1875 13.125 C-0.125625 8.79375 -0.06375 4.4625 0 0 Z " fill="#F7931E" transform="translate(952,382)"/>
<path d="M0 0 C0.48984375 0.3609375 0.9796875 0.721875 1.484375 1.09375 C2.144375 -0.22625 2.804375 -1.54625 3.484375 -2.90625 C11.66327367 -3.16727868 19.48806693 -2.76617225 27.484375 -0.90625 C27.979375 -0.41125 27.979375 -0.41125 28.484375 0.09375 C28.39113148 1.7303414 28.23268103 3.36331811 28.04638672 4.99194336 C27.48292802 10.60047677 27.40095393 16.0918051 27.4921875 21.72265625 C27.50967241 23.68293781 27.52658361 25.64322456 27.54296875 27.60351562 C27.57413299 30.65192234 27.61003233 33.70006592 27.65576172 36.74829102 C27.69786514 39.71894752 27.72144606 42.68928464 27.7421875 45.66015625 C27.77011887 47.03658043 27.77011887 47.03658043 27.7986145 48.44081116 C27.80379593 49.70869728 27.80379593 49.70869728 27.80908203 51.00219727 C27.82359909 52.11825096 27.82359909 52.11825096 27.83840942 53.2568512 C27.66316238 54.1661161 27.66316238 54.1661161 27.484375 55.09375 C24.13317981 57.32788013 23.0665995 57.33222762 19.16015625 57.2890625 C17.61811523 57.27939453 17.61811523 57.27939453 16.04492188 57.26953125 C14.97306641 57.25277344 13.90121094 57.23601562 12.796875 57.21875 C11.17168945 57.20521484 11.17168945 57.20521484 9.51367188 57.19140625 C6.8370179 57.1678234 4.16080703 57.13491126 1.484375 57.09375 C0.494375 55.11375 -0.495625 53.13375 -1.515625 51.09375 C-2.05832031 51.44308594 -2.60101562 51.79242188 -3.16015625 52.15234375 C-3.87558594 52.60738281 -4.59101562 53.06242187 -5.328125 53.53125 C-6.38966797 54.20994141 -6.38966797 54.20994141 -7.47265625 54.90234375 C-14.32812168 58.90027292 -25.79591089 58.20389781 -33.421875 56.41015625 C-35.63185552 55.47247085 -37.52276014 54.42921753 -39.515625 53.09375 C-40.21945312 52.64644531 -40.92328125 52.19914062 -41.6484375 51.73828125 C-48.33638212 47.13569206 -52.34371072 41.94899946 -54.515625 34.09375 C-55.4278133 23.98859908 -54.89849437 15.09189911 -48.578125 6.90625 C-37.24346571 -5.20342872 -14.18213873 -8.8027068 0 0 Z M-25.515625 19.09375 C-27.96362185 22.76574528 -28.34896621 25.82704302 -27.515625 30.09375 C-24.59197509 33.728558 -21.55819036 36.86970793 -16.7734375 37.39453125 C-15.73960937 37.39839844 -14.70578125 37.40226562 -13.640625 37.40625 C-12.61195313 37.42300781 -11.58328125 37.43976563 -10.5234375 37.45703125 C-7.11189917 37.04498831 -5.2752156 36.10423982 -2.515625 34.09375 C-0.35329619 31.33491669 0.42380263 29.57832897 0.859375 26.09375 C0.42380263 22.60917103 -0.35329619 20.85258331 -2.515625 18.09375 C-9.59077873 12.99076456 -19.07280727 13.15957578 -25.515625 19.09375 Z " fill="#F7931E" transform="translate(607.515625,383.90625)"/>
<path d="M0 0 C1.051875 0.5775 2.10375 1.155 3.1875 1.75 C11.21592909 8.17274327 15.14321831 14.57413734 16.5 24.75 C15.98887627 28.07230426 15.30290509 29.62058116 12.85986328 31.91650391 C8.64239559 34.37346395 3.44800249 34.08864344 -1.3125 34.3125 C-2.46991699 34.38388184 -3.62733398 34.45526367 -4.81982422 34.52880859 C-13.54968808 35.03116804 -22.25842708 35.23768627 -31 35 C-27.25750173 38.94479547 -25.29312768 40.85702321 -19.7421875 41.203125 C-13.0928759 41.28372272 -7.1439258 41.35158227 -0.9296875 38.65625 C1.61719865 37.79010248 3.32719869 37.58655105 6 38 C8.0546875 40.01171875 8.0546875 40.01171875 9.875 42.6875 C10.49117187 43.55761719 11.10734375 44.42773438 11.7421875 45.32421875 C13 48 13 48 12.91796875 50.6640625 C11.83144173 53.42892701 10.9731074 54.19392304 8.4375 55.6875 C7.79683594 56.08324219 7.15617188 56.47898437 6.49609375 56.88671875 C-1.00994873 60.23448418 -8.27997674 60.33664983 -16.375 60.3125 C-17.4475 60.32861328 -18.52 60.34472656 -19.625 60.36132812 C-31.39212922 60.36848575 -42.00460994 57.40630459 -50.85546875 49.30078125 C-56.51205322 43.08552177 -58.55552931 36.89169859 -58.4375 28.625 C-58.42920166 27.87549072 -58.42090332 27.12598145 -58.41235352 26.35375977 C-58.2339036 20.50555587 -57.35380512 15.9055657 -54 11 C-53.53722656 10.30648438 -53.07445312 9.61296875 -52.59765625 8.8984375 C-41.52929423 -5.55267575 -15.42397811 -9.33215482 0 0 Z M-32 17 C-32.64522408 19.58413151 -32.64522408 19.58413151 -33 22 C-29.87501937 22.02895976 -26.7500731 22.04678483 -23.625 22.0625 C-22.73554687 22.07087891 -21.84609375 22.07925781 -20.9296875 22.08789062 C-20.07890625 22.09111328 -19.228125 22.09433594 -18.3515625 22.09765625 C-17.17327881 22.10551147 -17.17327881 22.10551147 -15.97119141 22.11352539 C-13.92227332 22.12573953 -13.92227332 22.12573953 -12 21 C-12.8657157 18.33070993 -13.72191238 16.32258164 -15.5625 14.1875 C-21.43657601 11.32577066 -27.64869881 11.968808 -32 17 Z " fill="#F7931E" transform="translate(795,382)"/>
<path d="M0 0 C1.0113501 0.00322266 2.0227002 0.00644531 3.06469727 0.00976562 C10.25741251 0.14443675 16.22556844 0.93267685 22.625 4.4375 C22.36233305 5.77246612 22.08927347 7.10538705 21.8125 8.4375 C21.66167969 9.18 21.51085937 9.9225 21.35546875 10.6875 C20.37317467 14.3855483 19.00489976 17.86866336 17.625 21.4375 C17.05056152 21.41655273 16.47612305 21.39560547 15.88427734 21.37402344 C13.25636626 21.29036236 10.6287361 21.2386854 8 21.1875 C7.09636719 21.15398437 6.19273437 21.12046875 5.26171875 21.0859375 C-0.62716729 20.99996836 -3.89012738 21.51867926 -8.375 25.4375 C-9.98347182 28.65444364 -9.98809149 31.95887222 -9.375 35.4375 C-7.19925584 38.12855198 -5.46434144 39.89282928 -2.375 41.4375 C-0.85351674 41.52122659 0.67155778 41.54480027 2.1953125 41.53515625 C3.53916016 41.53032227 3.53916016 41.53032227 4.91015625 41.52539062 C5.84730469 41.51701172 6.78445313 41.50863281 7.75 41.5 C9.16732422 41.49323242 9.16732422 41.49323242 10.61328125 41.48632812 C12.95058387 41.47452357 15.28776061 41.45805759 17.625 41.4375 C19.40081628 45.92729965 20.98723078 49.97401379 21.4375 54.8125 C21.52644531 55.64523437 21.61539063 56.47796875 21.70703125 57.3359375 C21.625 59.4375 21.625 59.4375 19.625 61.4375 C8.13639657 65.43285154 -9.1059778 65.74663831 -20.1875 60.703125 C-29.00350409 55.60243692 -36.06628902 49.2031642 -39.0625 39.125 C-40.13116828 29.93445282 -39.11681573 22.01706827 -33.83203125 14.13671875 C-24.96551543 3.36298901 -13.58150322 -0.13437055 0 0 Z " fill="#F7931E" transform="translate(526.375,378.5625)"/>
<path d="M0 0 C21.12 0 42.24 0 64 0 C64 13.2 64 26.4 64 40 C42.88 40 21.76 40 0 40 C0 26.8 0 13.6 0 0 Z " fill="#185786" transform="translate(579,145)"/>
<path d="M0 0 C23.99117545 23.21865102 44.2552052 57.45982668 45.17578125 91.46875 C45.21212525 94.98281109 45.13984791 98.48826348 45 102 C44.67 102 44.34 102 44 102 C43.88785156 101.33097656 43.77570313 100.66195312 43.66015625 99.97265625 C40.76197752 85.86060949 32.97343275 73.10996436 24 62 C23.34475342 61.17870605 23.34475342 61.17870605 22.67626953 60.34082031 C15.172152 50.9999586 7.15541996 42.16484302 -3.30859375 36.07421875 C-6 34 -6 34 -6.76171875 31.43359375 C-6.50588629 21.10604118 -4.66805425 9.3361085 0 0 Z " fill="#323335" transform="translate(87,158)"/>
</svg>
